<svg width="25" height="24" viewBox="0 0 25 24" fill="none" xmlns="http://www.w3.org/2000/svg">
<path d="M3.5 3H5.5L5.9 5M5.9 5H21.5L17.5 13H7.5M5.9 5L7.5 13M7.5 13L5.207 15.293C4.577 15.923 5.023 17 5.914 17H17.5M17.5 17C16.9696 17 16.4609 17.2107 16.0858 17.5858C15.7107 17.9609 15.5 18.4696 15.5 19C15.5 19.5304 15.7107 20.0391 16.0858 20.4142C16.4609 20.7893 16.9696 21 17.5 21C18.0304 21 18.5391 20.7893 18.9142 20.4142C19.2893 20.0391 19.5 19.5304 19.5 19C19.5 18.4696 19.2893 17.9609 18.9142 17.5858C18.5391 17.2107 18.0304 17 17.5 17ZM9.5 19C9.5 19.5304 9.28929 20.0391 8.91421 20.4142C8.53914 20.7893 8.03043 21 7.5 21C6.96957 21 6.46086 20.7893 6.08579 20.4142C5.71071 20.0391 5.5 19.5304 5.5 19C5.5 18.4696 5.71071 17.9609 6.08579 17.5858C6.46086 17.2107 6.96957 17 7.5 17C8.03043 17 8.53914 17.2107 8.91421 17.5858C9.28929 17.9609 9.5 18.4696 9.5 19Z" stroke="#3B82F6" stroke-width="2" stroke-linecap="round" stroke-linejoin="round"/>
</svg>
