<svg width="25" height="24" viewBox="0 0 25 24" fill="none" xmlns="http://www.w3.org/2000/svg">
<path d="M15.3284 9.82843C16.0786 9.07828 16.5 8.06087 16.5 7C16.5 5.93913 16.0786 4.92172 15.3284 4.17157C14.5783 3.42143 13.5609 3 12.5 3C11.4391 3 10.4217 3.42143 9.67157 4.17157C8.92143 4.92172 8.5 5.93913 8.5 7C8.5 8.06087 8.92143 9.07828 9.67157 9.82843C10.4217 10.5786 11.4391 11 12.5 11C13.5609 11 14.5783 10.5786 15.3284 9.82843Z" stroke="#3B82F6" stroke-width="2" stroke-linecap="round" stroke-linejoin="round"/>
<path d="M7.55025 16.0503C8.86301 14.7375 10.6435 14 12.5 14C14.3565 14 16.137 14.7375 17.4497 16.0503C18.7625 17.363 19.5 19.1435 19.5 21H5.5C5.5 19.1435 6.2375 17.363 7.55025 16.0503Z" stroke="#3B82F6" stroke-width="2" stroke-linecap="round" stroke-linejoin="round"/>
</svg>
