<svg width="24" height="24" viewBox="0 0 24 24" fill="none" xmlns="http://www.w3.org/2000/svg">
<g id="x-circle">
<path id="Vector" fill-rule="evenodd" clip-rule="evenodd" d="M11.9999 21.6C14.546 21.6 16.9878 20.5886 18.7881 18.7882C20.5885 16.9879 21.5999 14.5461 21.5999 12C21.5999 9.45392 20.5885 7.01212 18.7881 5.21177C16.9878 3.41142 14.546 2.39999 11.9999 2.39999C9.45382 2.39999 7.01203 3.41142 5.21168 5.21177C3.41133 7.01212 2.3999 9.45392 2.3999 12C2.3999 14.5461 3.41133 16.9879 5.21168 18.7882C7.01203 20.5886 9.45382 21.6 11.9999 21.6ZM10.4483 8.75159C10.222 8.533 9.91886 8.41205 9.60422 8.41478C9.28959 8.41752 8.98861 8.54372 8.76612 8.76621C8.54363 8.9887 8.41743 9.28968 8.41469 9.60431C8.41196 9.91895 8.53291 10.2221 8.7515 10.4484L10.3031 12L8.7515 13.5516C8.63689 13.6623 8.54547 13.7947 8.48258 13.9411C8.41969 14.0875 8.38659 14.245 8.3852 14.4043C8.38382 14.5636 8.41418 14.7217 8.47452 14.8691C8.53485 15.0166 8.62396 15.1506 8.73663 15.2633C8.8493 15.3759 8.98328 15.465 9.13076 15.5254C9.27823 15.5857 9.43625 15.6161 9.59558 15.6147C9.75492 15.6133 9.91238 15.5802 10.0588 15.5173C10.2052 15.4544 10.3376 15.363 10.4483 15.2484L11.9999 13.6968L13.5515 15.2484C13.7778 15.467 14.0809 15.5879 14.3956 15.5852C14.7102 15.5825 15.0112 15.4563 15.2337 15.2338C15.4562 15.0113 15.5824 14.7103 15.5851 14.3957C15.5878 14.081 15.4669 13.7779 15.2483 13.5516L13.6967 12L15.2483 10.4484C15.4669 10.2221 15.5878 9.91895 15.5851 9.60431C15.5824 9.28968 15.4562 8.9887 15.2337 8.76621C15.0112 8.54372 14.7102 8.41752 14.3956 8.41478C14.0809 8.41205 13.7778 8.533 13.5515 8.75159L11.9999 10.3032L10.4483 8.75159Z" fill="#374151"/>
</g>
</svg>
