<svg width="28" height="34" viewBox="0 0 28 34" fill="none" xmlns="http://www.w3.org/2000/svg">
<path id="Vector" d="M8.99992 18.6667H18.9999M13.9999 13.6667V23.6667M22.3333 32H5.66659C4.78253 32 3.93468 31.6488 3.30956 31.0237C2.68444 30.3986 2.33325 29.5507 2.33325 28.6667V5.33333C2.33325 4.44928 2.68444 3.60143 3.30956 2.97631C3.93468 2.35119 4.78253 2 5.66659 2H14.9766C15.4186 2.00009 15.8424 2.17575 16.1549 2.48833L25.1783 11.5117C25.4908 11.8242 25.6665 12.248 25.6666 12.69V28.6667C25.6666 29.5507 25.3154 30.3986 24.6903 31.0237C24.0652 31.6488 23.2173 32 22.3333 32Z" stroke="#D8DEE4" stroke-width="3.33333" stroke-linecap="round" stroke-linejoin="round"/>
</svg>
